<?xml version="1.0" encoding="UTF-8"?>
<svg id="Calque_2" xmlns="http://www.w3.org/2000/svg" version="1.1" viewBox="0 0 500 500">
  <!-- Generator: Adobe Illustrator 30.0.0, SVG Export Plug-In . SVG Version: 2.1.1 Build 123)  -->
  <rect y="3.08" width="500" height="496.92" fill="#e9eef1"/>
  <path d="M393.63,385.02H106.37c-20.73,0-37.6-16.87-37.6-37.6v-211.73c0-20.73,16.87-37.6,37.6-37.6h287.25c20.73,0,37.6,16.87,37.6,37.6v211.73c0,20.73-16.87,37.6-37.6,37.6h.01ZM106.37,122.8c-7.11,0-12.89,5.78-12.89,12.89v211.73c0,7.11,5.78,12.89,12.89,12.89h287.25c7.11,0,12.89-5.78,12.89-12.89v-211.73c0-7.11-5.78-12.89-12.89-12.89H106.37Z" fill="#babec1"/>
  <polygon points="120.65 301.62 120.65 338.31 381.9 338.31 381.9 254.65 304.6 177.84 210.18 271.28 179.85 243.35 120.65 301.62" fill="#babec1"/>
  <circle cx="154.41" cy="183.71" r="36.2" fill="#babec1"/>
  <g>
    <path d="M178.24,412.67h18.25c4.11,0,7.25.32,9.41.94,2.9.85,5.38,2.37,7.45,4.55,2.07,2.18,3.64,4.85,4.72,8.01,1.08,3.16,1.62,7.05,1.62,11.69,0,4.07-.51,7.58-1.52,10.52-1.24,3.6-3,6.51-5.3,8.74-1.73,1.69-4.07,3-7.02,3.95-2.2.7-5.15,1.05-8.84,1.05h-18.79v-49.45ZM188.23,421.04v32.75h7.45c2.79,0,4.8-.16,6.04-.47,1.62-.41,2.96-1.09,4.03-2.06,1.07-.97,1.94-2.56,2.61-4.77.67-2.21,1.01-5.23,1.01-9.06s-.34-6.76-1.01-8.8c-.67-2.05-1.62-3.64-2.83-4.79s-2.75-1.92-4.62-2.33c-1.39-.31-4.13-.47-8.2-.47h-4.49Z" fill="#babec1"/>
    <path d="M226.14,437.7c0-5.04.75-9.26,2.26-12.68,1.12-2.52,2.66-4.78,4.6-6.78,1.94-2,4.08-3.49,6.39-4.45,3.08-1.3,6.63-1.96,10.66-1.96,7.29,0,13.12,2.26,17.49,6.78s6.56,10.8,6.56,18.85-2.17,14.23-6.51,18.74c-4.34,4.51-10.14,6.76-17.4,6.76s-13.2-2.24-17.54-6.73c-4.34-4.49-6.51-10.66-6.51-18.53ZM236.42,437.36c0,5.6,1.29,9.84,3.88,12.73,2.59,2.89,5.87,4.33,9.85,4.33s7.25-1.43,9.8-4.3c2.55-2.87,3.83-7.17,3.83-12.9s-1.24-9.89-3.73-12.68c-2.49-2.79-5.79-4.18-9.9-4.18s-7.43,1.41-9.95,4.23c-2.52,2.82-3.78,7.08-3.78,12.77Z" fill="#babec1"/>
    <path d="M313.53,443.94l9.68,3.07c-1.48,5.4-3.95,9.41-7.4,12.02-3.45,2.62-7.83,3.93-13.14,3.93-6.57,0-11.96-2.24-16.19-6.73-4.23-4.49-6.34-10.62-6.34-18.4,0-8.23,2.12-14.62,6.38-19.17,4.25-4.55,9.84-6.83,16.76-6.83,6.05,0,10.96,1.79,14.74,5.36,2.25,2.11,3.93,5.15,5.06,9.11l-9.88,2.36c-.58-2.56-1.8-4.59-3.66-6.07-1.85-1.48-4.11-2.23-6.76-2.23-3.67,0-6.64,1.32-8.92,3.95-2.28,2.63-3.42,6.89-3.42,12.78,0,6.25,1.12,10.7,3.37,13.36,2.25,2.65,5.17,3.98,8.77,3.98,2.65,0,4.94-.84,6.85-2.53s3.28-4.34,4.12-7.96Z" fill="#babec1"/>
  </g>
</svg>